<svg id="cta_settings" data-name="cta/settings" xmlns="http://www.w3.org/2000/svg" width="32" height="32" viewBox="0 0 32 32">
  <path id="Stroke_1" data-name="Stroke 1" d="M0,.5H26.746" transform="translate(2.627 28.951)" fill="none" stroke="#9eb3c2" stroke-linecap="round" stroke-miterlimit="10" stroke-width="1.5"/>
  <path id="Fill_3" data-name="Fill 3" d="M0,6.374H4.785V0H0Z" transform="translate(4.505 23.077)" fill="none"/>
  <path id="Stroke_4" data-name="Stroke 4" d="M0,6.374H4.785V0H0Z" transform="translate(4.505 23.077)" fill="none" stroke="#9eb3c2" stroke-miterlimit="10" stroke-width="1.5"/>
  <path id="Fill_6" data-name="Fill 6" d="M0,11.809H4.785V0H0Z" transform="translate(10.533 17.642)" fill="none"/>
  <path id="Stroke_7" data-name="Stroke 7" d="M0,11.809H4.786V0H0Z" transform="translate(10.533 17.642)" fill="none" stroke="#9eb3c2" stroke-miterlimit="10" stroke-width="1.5"/>
  <path id="Fill_9" data-name="Fill 9" d="M0,9.437H4.785V0H0Z" transform="translate(16.682 20.014)" fill="none"/>
  <path id="Stroke_10" data-name="Stroke 10" d="M0,9.437H4.785V0H0Z" transform="translate(16.682 20.014)" fill="none" stroke="#9eb3c2" stroke-miterlimit="10" stroke-width="1.5"/>
  <path id="Fill_12" data-name="Fill 12" d="M0,15.375H4.785V0H0Z" transform="translate(22.71 14.076)" fill="none"/>
  <path id="Stroke_13" data-name="Stroke 13" d="M0,15.375H4.785V0H0Z" transform="translate(22.71 14.076)" fill="none" stroke="#9eb3c2" stroke-miterlimit="10" stroke-width="1.5"/>
  <path id="Stroke_15" data-name="Stroke 15" d="M0,2.685,3.146,0" transform="translate(7.864 7.512)" fill="none" stroke="#9eb3c2" stroke-linecap="round" stroke-miterlimit="10" stroke-width="1.5"/>
  <path id="Stroke_16" data-name="Stroke 16" d="M0,2.651,3.107,0" transform="translate(19.928 6.45)" fill="none" stroke="#9eb3c2" stroke-linecap="round" stroke-miterlimit="10" stroke-width="1.5"/>
  <path id="Stroke_17" data-name="Stroke 17" d="M2,1.711,0,0Z" transform="translate(14.446 7.674)" fill="none" stroke="#9eb3c2" stroke-linecap="round" stroke-miterlimit="10" stroke-width="1.5"/>
  <path id="Fill_18" data-name="Fill 18" d="M0,2.229A2.229,2.229,0,1,0,2.229,0,2.231,2.231,0,0,0,0,2.229Z" transform="translate(3.937 9.437)" fill="none"/>
  <path id="Stroke_20" data-name="Stroke 20" d="M2.229,0A2.229,2.229,0,1,0,4.458,2.229,2.231,2.231,0,0,0,2.229,0Z" transform="translate(3.937 9.437)" fill="none" stroke="#9eb3c2" stroke-miterlimit="10" stroke-width="1.5"/>
  <path id="Fill_22" data-name="Fill 22" d="M0,2.229A2.229,2.229,0,1,0,2.229,0,2.231,2.231,0,0,0,0,2.229Z" transform="translate(10.624 3.865)" fill="none"/>
  <path id="Stroke_24" data-name="Stroke 24" d="M2.229,0A2.229,2.229,0,1,0,4.458,2.229,2.231,2.231,0,0,0,2.229,0Z" transform="translate(10.624 3.865)" fill="none" stroke="#9eb3c2" stroke-miterlimit="10" stroke-width="1.5"/>
  <path id="Fill_26" data-name="Fill 26" d="M2.229,0A2.229,2.229,0,1,0,4.458,2.229,2.231,2.231,0,0,0,2.229,0" transform="translate(22.387 2.627)" fill="none"/>
  <path id="Stroke_28" data-name="Stroke 28" d="M2.229,0A2.229,2.229,0,1,0,4.458,2.229,2.231,2.231,0,0,0,2.229,0Z" transform="translate(22.387 2.627)" fill="none" stroke="#9eb3c2" stroke-miterlimit="10" stroke-width="1.5"/>
  <path id="Fill_30" data-name="Fill 30" d="M2.229,0A2.229,2.229,0,1,0,4.458,2.229,2.231,2.231,0,0,0,2.229,0" transform="translate(16.023 8.348)" fill="none"/>
  <path id="Stroke_32" data-name="Stroke 32" d="M2.229,0A2.229,2.229,0,1,0,4.458,2.229,2.231,2.231,0,0,0,2.229,0Z" transform="translate(16.023 8.348)" fill="none" stroke="#9eb3c2" stroke-miterlimit="10" stroke-width="1.5"/>
</svg>
