<svg id="cta_settings" data-name="cta/settings" xmlns="http://www.w3.org/2000/svg" width="32" height="32" viewBox="0 0 32 32">
  <path id="Stroke_1" data-name="Stroke 1" d="M25.377,10.566,23.5,10.247a10.6,10.6,0,0,0-.754-1.821l1.106-1.548a1.647,1.647,0,0,0-.179-2.129L22.008,3.084A1.64,1.64,0,0,0,20.84,2.6a1.623,1.623,0,0,0-.955.307L18.332,4.012a10.49,10.49,0,0,0-1.888-.777L16.13,1.38A1.651,1.651,0,0,0,14.5,0H12.147a1.651,1.651,0,0,0-1.631,1.38l-.324,1.9a10.339,10.339,0,0,0-1.816.765L6.839,2.939a1.65,1.65,0,0,0-2.129.179L3.039,4.783a1.654,1.654,0,0,0-.179,2.129l1.117,1.57a10.354,10.354,0,0,0-.743,1.827l-1.855.313A1.651,1.651,0,0,0,0,12.253v2.352a1.651,1.651,0,0,0,1.38,1.631l1.9.324a10.339,10.339,0,0,0,.765,1.816l-1.1,1.531a1.647,1.647,0,0,0,.179,2.129L4.788,23.7a1.64,1.64,0,0,0,1.168.486,1.623,1.623,0,0,0,.955-.307l1.57-1.117a10.57,10.57,0,0,0,1.766.726l.313,1.877a1.651,1.651,0,0,0,1.631,1.38h2.358a1.651,1.651,0,0,0,1.631-1.38l.318-1.877a10.6,10.6,0,0,0,1.821-.754l1.548,1.106A1.65,1.65,0,0,0,22,23.662L23.662,22a1.654,1.654,0,0,0,.179-2.129l-1.106-1.553a10.524,10.524,0,0,0,.754-1.821l1.877-.313a1.651,1.651,0,0,0,1.38-1.631V12.2A1.631,1.631,0,0,0,25.377,10.566Z" transform="translate(2.388 2.388)" fill="none" stroke="#9eb3c2" stroke-miterlimit="10" stroke-width="1.5"/>
  <g id="Stroke_3" data-name="Stroke 3" transform="translate(11.463 11.463)" fill="none" stroke-miterlimit="10">
    <path d="M4.537,0A4.537,4.537,0,1,0,9.075,4.537,4.54,4.54,0,0,0,4.537,0Z" stroke="none"/>
    <path d="M 4.537313461303711 1.500003337860107 C 2.862533569335938 1.500003337860107 1.500003337860107 2.862533569335938 1.500003337860107 4.537313461303711 C 1.500003337860107 6.212093353271484 2.862533569335938 7.574623584747314 4.537313461303711 7.574623584747314 C 6.212093353271484 7.574623584747314 7.574623584747314 6.212093353271484 7.574623584747314 4.537313461303711 C 7.574623584747314 2.862533569335938 6.212093353271484 1.500003337860107 4.537313461303711 1.500003337860107 M 4.537313461303711 3.814697265625e-06 C 7.040963172912598 3.814697265625e-06 9.074623107910156 2.033663272857666 9.074623107910156 4.537313461303711 C 9.074623107910156 7.040963172912598 7.040963172912598 9.074623107910156 4.537313461303711 9.074623107910156 C 2.033663272857666 9.074623107910156 3.814697265625e-06 7.040963172912598 3.814697265625e-06 4.537313461303711 C 3.814697265625e-06 2.033663272857666 2.033663272857666 3.814697265625e-06 4.537313461303711 3.814697265625e-06 Z" stroke="none" fill="#9eb3c2"/>
  </g>
</svg>
