<svg id="cta_settings" data-name="cta/settings" xmlns="http://www.w3.org/2000/svg" width="32" height="32" viewBox="0 0 32 32">
  <path id="Stroke_1" data-name="Stroke 1" d="M23.643,7.257V7.236c-.012-.257-.02-.529-.025-.832a2.886,2.886,0,0,0-2.774-2.777A11.659,11.659,0,0,1,13.063.472L13.045.456a1.831,1.831,0,0,0-2.418,0l-.018.017A11.66,11.66,0,0,1,2.828,3.628,2.887,2.887,0,0,0,.054,6.405c0,.3-.013.572-.025.831v.048c-.062,3.136-.139,7.038,1.217,10.581A13.428,13.428,0,0,0,4.6,22.9a17.725,17.725,0,0,0,6.572,3.74,2.186,2.186,0,0,0,.269.071,2.072,2.072,0,0,0,.782,0,2.12,2.12,0,0,0,.27-.071A17.736,17.736,0,0,0,19.062,22.9a13.441,13.441,0,0,0,3.358-5.035C23.782,14.308,23.7,10.4,23.643,7.257Z" transform="translate(4.06 2.627)" fill="none" stroke="#9eb3c2" stroke-miterlimit="10" stroke-width="1.5"/>
  <path id="Stroke_5" data-name="Stroke 5" d="M6.666,13.331a6.666,6.666,0,1,1,6.666-6.666A6.673,6.673,0,0,1,6.666,13.331Z" transform="translate(9.23 9.335)" fill="#fff" stroke="#9eb3c2" stroke-miterlimit="10" stroke-width="1.5"/>
  <path id="Stroke_3" data-name="Stroke 3" d="M0,2.866,2.121,5.254,7.577,0" transform="translate(12.193 13.612)" fill="none" stroke="#9eb3c2" stroke-linecap="round" stroke-miterlimit="10" stroke-width="1.5"/>
</svg>
