<svg id="nav__timeoff" xmlns="http://www.w3.org/2000/svg" width="32" height="32" viewBox="0 0 32 32">
  <path id="Stroke_1" data-name="Stroke 1" d="M0,.5H11.7" transform="translate(11.103 17.768)" fill="none" stroke="#9eb3c2" stroke-miterlimit="10" stroke-width="1.5"/>
  <path id="Stroke_2" data-name="Stroke 2" d="M0,.5H11.7" transform="translate(11.103 14.932)" fill="none" stroke="#9eb3c2" stroke-miterlimit="10" stroke-width="1.5"/>
  <path id="Stroke_3" data-name="Stroke 3" d="M0,.5H11.7" transform="translate(11.103 20.488)" fill="none" stroke="#9eb3c2" stroke-miterlimit="10" stroke-width="1.5"/>
  <path id="Stroke_4" data-name="Stroke 4" d="M0,.486,7.6.5" transform="translate(11.103 23.222)" fill="none" stroke="#9eb3c2" stroke-miterlimit="10" stroke-width="1.5"/>
  <path id="Stroke_5" data-name="Stroke 5" d="M1.589.794A.794.794,0,1,1,.794,0,.795.795,0,0,1,1.589.794Z" transform="translate(7.525 14.458)" fill="none" stroke="#9eb3c2" stroke-miterlimit="10" stroke-width="1.5"/>
  <path id="Stroke_7" data-name="Stroke 7" d="M0,.5H11.7" transform="translate(11.103 12.037)" fill="none" stroke="#9eb3c2" stroke-miterlimit="10" stroke-width="1.5"/>
  <path id="Stroke_9" data-name="Stroke 9" d="M0,.5H11.7" transform="translate(11.103 9.2)" fill="none" stroke="#9eb3c2" stroke-miterlimit="10" stroke-width="1.5"/>
  <path id="Stroke_11" data-name="Stroke 11" d="M1.589.794A.794.794,0,1,1,.794,0,.795.795,0,0,1,1.589.794Z" transform="translate(7.525 8.727)" fill="none" stroke="#9eb3c2" stroke-miterlimit="10" stroke-width="1.5"/>
  <path id="Stroke_13" data-name="Stroke 13" d="M1.589.794A.794.794,0,1,1,.794,0,.795.795,0,0,1,1.589.794Z" transform="translate(7.525 20.19)" fill="none" stroke="#9eb3c2" stroke-miterlimit="10" stroke-width="1.5"/>
  <path id="Stroke_15" data-name="Stroke 15" d="M21.284,25.568H0V0H17.311l3.973,3.973Z" transform="translate(4.657 2.298)" fill="none" stroke="#9eb3c2" stroke-miterlimit="10" stroke-width="1.5"/>
  <path id="Stroke_17" data-name="Stroke 17" d="M21.284,0V21.595H0" transform="translate(7.045 8.659)" fill="none" stroke="#9eb3c2" stroke-miterlimit="10" stroke-width="1.5"/>
  <path id="Stroke_19" data-name="Stroke 19" d="M3.5,3.5H0V0Z" transform="translate(21.968 2.775)" fill="none" stroke="#9eb3c2" stroke-miterlimit="10" stroke-width="1.5"/>
</svg>
