<svg id="cta_settings" data-name="cta/settings" xmlns="http://www.w3.org/2000/svg" width="32" height="32" viewBox="0 0 32 32">
  <path id="Path" d="M9.552,0A9.552,9.552,0,1,1,0,9.552,9.544,9.544,0,0,1,9.552,0Z" transform="translate(6.687 7.164)" fill="none" stroke="#9eb3c2" stroke-miterlimit="10" stroke-width="1.5"/>
  <path id="Path-2" data-name="Path" d="M12.9,0A12.9,12.9,0,1,1,0,12.9,12.886,12.886,0,0,1,12.9,0Z" transform="translate(3.343 3.821)" fill="none" stroke="#9eb3c2" stroke-miterlimit="10" stroke-width="1.5"/>
  <path id="Stroke_23" data-name="Stroke 23" d="M2.388,2.388,0,0" transform="translate(16.213 16.912)" fill="none" stroke="#9eb3c2" stroke-linecap="round" stroke-miterlimit="10" stroke-width="1.5"/>
  <path id="Fill_29" data-name="Fill 29" d="M3.239,0A3.245,3.245,0,0,1,5.172.623,14.389,14.389,0,0,0,.195,4.363,3.262,3.262,0,0,1,3.239,0" transform="translate(5.011 2.627)" fill="#fefefe"/>
  <path id="Stroke_31" data-name="Stroke 31" d="M3.239,0A3.245,3.245,0,0,1,5.172.623,14.389,14.389,0,0,0,.195,4.363,3.262,3.262,0,0,1,3.239,0Z" transform="translate(5.011 2.627)" fill="none" stroke="#9eb3c2" stroke-miterlimit="10" stroke-width="1.5"/>
  <path id="Fill_33" data-name="Fill 33" d="M1.914,0a3.263,3.263,0,0,1,3.06,4.323A14.394,14.394,0,0,0,0,.609,3.246,3.246,0,0,1,1.914,0" transform="translate(21.954 2.627)" fill="#fefefe"/>
  <path id="Stroke_35" data-name="Stroke 35" d="M1.914,0a3.263,3.263,0,0,1,3.06,4.323A14.394,14.394,0,0,0,0,.609,3.246,3.246,0,0,1,1.914,0Z" transform="translate(21.954 2.627)" fill="none" stroke="#9eb3c2" stroke-miterlimit="10" stroke-width="1.5"/>
  <path id="Stroke_5" data-name="Stroke 5" d="M.5,0V3.343" transform="translate(15.5 11.463)" fill="none" stroke="#9eb3c2" stroke-linecap="round" stroke-miterlimit="10" stroke-width="1.5"/>
  <path id="Stroke_7" data-name="Stroke 7" d="M.5,0V2.388" transform="translate(15.5 7.164)" fill="none" stroke="#9eb3c2" stroke-linecap="round" stroke-miterlimit="10" stroke-width="1.5"/>
  <path id="Stroke_9" data-name="Stroke 9" d="M.5,0V2.388" transform="translate(15.5 23.881)" fill="none" stroke="#9eb3c2" stroke-linecap="round" stroke-miterlimit="10" stroke-width="1.5"/>
  <path id="Stroke_7-2" data-name="Stroke 7" d="M2.388.5H0" transform="translate(23.164 16.216)" fill="none" stroke="#9eb3c2" stroke-linecap="round" stroke-miterlimit="10" stroke-width="1.5"/>
  <path id="Stroke_9-2" data-name="Stroke 9" d="M2.388.5H0" transform="translate(6.925 16.216)" fill="none" stroke="#9eb3c2" stroke-linecap="round" stroke-miterlimit="10" stroke-width="1.5"/>
  <path id="Stroke_7-3" data-name="Stroke 7" d="M1.689,1.689,0,0" transform="translate(21.136 21.613)" fill="none" stroke="#9eb3c2" stroke-linecap="round" stroke-miterlimit="10" stroke-width="1.5"/>
  <path id="Stroke_9-3" data-name="Stroke 9" d="M1.689,1.689,0,0" transform="translate(9.653 10.131)" fill="none" stroke="#9eb3c2" stroke-linecap="round" stroke-miterlimit="10" stroke-width="1.5"/>
  <path id="Stroke_7-4" data-name="Stroke 7" d="M0,1.689,1.689,0" transform="translate(9.653 21.613)" fill="none" stroke="#9eb3c2" stroke-linecap="round" stroke-miterlimit="10" stroke-width="1.5"/>
  <path id="Stroke_9-4" data-name="Stroke 9" d="M0,1.689,1.689,0" transform="translate(21.136 10.131)" fill="none" stroke="#9eb3c2" stroke-linecap="round" stroke-miterlimit="10" stroke-width="1.5"/>
  <path id="Stroke_27" data-name="Stroke 27" d="M2.149,0A2.149,2.149,0,1,0,4.3,2.149,2.151,2.151,0,0,0,2.149,0Z" transform="translate(13.851 13.851)" fill="#fff" stroke="#9eb3c2" stroke-miterlimit="10" stroke-width="1.5"/>
</svg>
