<?xml version="1.0" encoding="utf-8"?>
<!-- Generator: Adobe Illustrator 24.3.0, SVG Export Plug-In . SVG Version: 6.00 Build 0)  -->
<svg version="1.1" id="cta_settings" xmlns="http://www.w3.org/2000/svg" xmlns:xlink="http://www.w3.org/1999/xlink" x="0px"
	 y="0px" viewBox="0 0 32 32" style="enable-background:new 0 0 32 32;" xml:space="preserve">
<style type="text/css">
	.st0{fill:none;stroke:#9EB3C2;stroke-width:1.5;stroke-miterlimit:10;}
	.st1{fill:#FFFFFF;}
	.st2{fill:none;stroke:#9EB3C2;stroke-width:1.5;stroke-linecap:round;stroke-miterlimit:10;}
</style>
<path id="Stroke_3" class="st0" d="M8.1,23.4H2.6c0-3.7,3.5-3.7,4.2-4.6l0.1-0.4c-1.2-0.6-1.9-1.8-1.8-3.2c-0.1-1.8,1.2-3.3,3-3.4
	c1.8,0.1,3.1,1.7,3,3.4c0,1.3-0.7,2.5-1.8,3.2l0.1,0.5c0.8,0.9,4.2,1,4.2,4.6L8.1,23.4z"/>
<path id="Stroke_5" class="st0" d="M8.1,9.4V3.2c0-0.3,0.2-0.6,0.6-0.6c0,0,0,0,0,0h20.2c0.3,0,0.6,0.3,0.6,0.6c0,0,0,0,0,0v25.6
	c0,0.3-0.2,0.6-0.6,0.6H8.6c-0.3,0-0.6-0.3-0.6-0.6v-4.2"/>
<path id="Fill_7" class="st1" d="M13.9,7.9c0,0.4-0.4,0.8-0.8,0.8c-0.4,0-0.8-0.4-0.8-0.8c0-0.4,0.4-0.8,0.8-0.8
	C13.6,7.1,13.9,7.4,13.9,7.9"/>
<path id="Stroke_9" class="st0" d="M13.9,7.9c0,0.4-0.4,0.8-0.8,0.8c-0.4,0-0.8-0.4-0.8-0.8c0-0.4,0.4-0.8,0.8-0.8
	C13.6,7.1,13.9,7.4,13.9,7.9z"/>
<path id="Fill_11" class="st1" d="M13.9,12.6c0,0.4-0.4,0.8-0.8,0.8c-0.4,0-0.8-0.4-0.8-0.8c0-0.4,0.4-0.8,0.8-0.8
	C13.6,11.8,13.9,12.2,13.9,12.6"/>
<path id="Stroke_13" class="st0" d="M13.9,12.6c0,0.4-0.4,0.8-0.8,0.8c-0.4,0-0.8-0.4-0.8-0.8c0-0.4,0.4-0.8,0.8-0.8
	C13.6,11.8,13.9,12.2,13.9,12.6z"/>
<path id="Fill_15" class="st1" d="M13.9,17.4c0,0.4-0.4,0.8-0.8,0.8c-0.4,0-0.8-0.4-0.8-0.8c0-0.4,0.4-0.8,0.8-0.8
	C13.6,16.6,13.9,17,13.9,17.4"/>
<path id="Stroke_17" class="st0" d="M13.9,17.4c0,0.4-0.4,0.8-0.8,0.8c-0.4,0-0.8-0.4-0.8-0.8c0-0.4,0.4-0.8,0.8-0.8
	C13.6,16.6,13.9,17,13.9,17.4z"/>
<path id="Stroke_19" class="st2" d="M15.7,7.9h9.6"/>
<path id="Stroke_21" class="st2" d="M15.7,12.6h9.6"/>
<path id="Stroke_23" class="st2" d="M15.7,17.4h9.6"/>
<path id="Stroke_25" class="st2" d="M15.7,22.2h9.6"/>
</svg>
