<?xml version="1.0" encoding="utf-8"?>
<!-- Generator: Adobe Illustrator 24.3.0, SVG Export Plug-In . SVG Version: 6.00 Build 0)  -->
<svg version="1.1" id="cta_settings" xmlns="http://www.w3.org/2000/svg" xmlns:xlink="http://www.w3.org/1999/xlink" x="0px"
	 y="0px" viewBox="0 0 32 32" style="enable-background:new 0 0 32 32;" xml:space="preserve">
<style type="text/css">
	.st0{fill:none;stroke:#9EB3C2;stroke-width:1.5;stroke-miterlimit:10;}
	.st1{fill:none;stroke:#9EB3C2;stroke-width:1.5;stroke-linecap:round;stroke-miterlimit:10;}
</style>
<path id="Stroke_1" class="st0" d="M27.7,9.9L27.7,9.9c0-0.3,0-0.5,0-0.9c-0.1-1.5-1.3-2.7-2.8-2.8c-2.9,0-5.7-1.2-7.8-3.2l0,0
	c-0.7-0.6-1.7-0.6-2.4,0l0,0c-2.1,2-4.9,3.1-7.8,3.2C5.4,6.3,4.2,7.5,4.1,9c0,0.3,0,0.6,0,0.8v0C4,13,4,16.9,5.3,20.5
	c0.7,1.9,1.9,3.6,3.4,5c1.9,1.7,4.1,3,6.6,3.7c0.1,0,0.2,0.1,0.3,0.1c0.3,0,0.5,0,0.8,0c0.1,0,0.2,0,0.3-0.1c2.4-0.8,4.7-2,6.6-3.7
	c1.5-1.4,2.6-3.1,3.4-5C27.8,16.9,27.8,13,27.7,9.9z"/>
<path id="Stroke_5" class="st0" d="M15.9,22.7c-3.7,0-6.7-3-6.7-6.7s3-6.7,6.7-6.7s6.7,3,6.7,6.7C22.6,19.7,19.6,22.7,15.9,22.7z"/>
<path id="Stroke_3" class="st1" d="M12.2,16.5l2.1,2.4l5.5-5.3"/>
</svg>
