<?xml version="1.0" encoding="utf-8"?>
<!-- Generator: Adobe Illustrator 24.3.0, SVG Export Plug-In . SVG Version: 6.00 Build 0)  -->
<svg version="1.1" id="cta_settings" xmlns="http://www.w3.org/2000/svg" xmlns:xlink="http://www.w3.org/1999/xlink" x="0px"
	 y="0px" viewBox="0 0 32 32" style="enable-background:new 0 0 32 32;" xml:space="preserve">
<style type="text/css">
	.st0{fill:none;stroke:#9EB3C2;stroke-width:1.5;stroke-miterlimit:10;}
	.st1{fill:none;stroke:#9EB3C2;stroke-width:1.5;stroke-linecap:round;stroke-miterlimit:10;}
	.st2{fill:#FEFEFE;}
</style>
<path id="Path" class="st0" d="M16.2,7.2c5.3,0,9.6,4.3,9.6,9.6s-4.3,9.6-9.6,9.6S6.7,22,6.7,16.7c0,0,0,0,0,0
	C6.7,11.4,11,7.2,16.2,7.2C16.2,7.2,16.2,7.2,16.2,7.2z"/>
<path id="Path-2" class="st0" d="M16.2,3.8c7.1,0,12.9,5.8,12.9,12.9s-5.8,12.9-12.9,12.9S3.3,23.8,3.3,16.7
	C3.3,9.6,9.1,3.8,16.2,3.8C16.2,3.8,16.2,3.8,16.2,3.8z"/>
<path id="Stroke_23" class="st1" d="M18.6,19.3l-1.5-1.5"/>
<path id="Fill_29" class="st2" d="M8.2,2.6c0.7,0,1.4,0.2,1.9,0.6C8.3,4.1,6.6,5.4,5.2,7c-0.6-1.7,0.3-3.6,2-4.2
	C7.5,2.7,7.9,2.6,8.2,2.6"/>
<path id="Stroke_31" class="st0" d="M8.2,2.6c0.7,0,1.4,0.2,1.9,0.6C8.3,4.1,6.6,5.4,5.2,7c-0.6-1.7,0.3-3.6,2-4.2
	C7.5,2.7,7.9,2.6,8.2,2.6z"/>
<path id="Fill_33" class="st2" d="M23.9,2.6c1.8,0,3.3,1.5,3.2,3.3c0,0.4-0.1,0.7-0.2,1c-1.4-1.6-3.1-2.9-5-3.7
	C22.5,2.8,23.2,2.6,23.9,2.6"/>
<path id="Stroke_35" class="st0" d="M23.9,2.6c1.8,0,3.3,1.5,3.2,3.3c0,0.4-0.1,0.7-0.2,1c-1.4-1.6-3.1-2.9-5-3.7
	C22.5,2.8,23.2,2.6,23.9,2.6z"/>
<path id="Stroke_5" class="st1" d="M16,11.5v2.3"/>
<path id="Stroke_7" class="st1" d="M16,7.2v2.4"/>
<path id="Stroke_9" class="st1" d="M16,23.9v2.4"/>
<path id="Stroke_7-2" class="st1" d="M25.6,16.7h-2.4"/>
<path id="Stroke_9-2" class="st1" d="M9.3,16.7H6.9"/>
<path id="Stroke_7-3" class="st1" d="M22.8,23.3l-1.7-1.7"/>
<path id="Stroke_9-3" class="st1" d="M11.3,11.8l-1.7-1.7"/>
<path id="Stroke_7-4" class="st1" d="M9.7,23.3l1.7-1.7"/>
<path id="Stroke_9-4" class="st1" d="M21.1,11.8l1.7-1.7"/>
<path id="Stroke_27" class="st0" d="M16,13.9c-1.2,0-2.1,1-2.1,2.2c0,1.2,1,2.1,2.2,2.1c1.2,0,2.1-1,2.1-2.1
	C18.1,14.8,17.2,13.9,16,13.9z"/>
</svg>
