<svg id="cta_settings" data-name="cta/settings" xmlns="http://www.w3.org/2000/svg" width="32" height="32" viewBox="0 0 32 32">
  <path id="Stroke_1" data-name="Stroke 1" d="M14.09,28.179A14.139,14.139,0,0,1,0,14.09C-.076,6.322,5.568.126,14.09,0a14.089,14.089,0,1,1,0,28.178Z" transform="translate(1.91 2.388)" fill="none" stroke="#9eb3c2" stroke-miterlimit="10" stroke-width="1.5"/>
  <path id="Stroke_3" data-name="Stroke 3" d="M1.91,3.821A1.917,1.917,0,0,1,0,1.911,1.854,1.854,0,0,1,1.91,0a1.91,1.91,0,1,1,0,3.821Z" transform="translate(14.328 14.806)" fill="none" stroke="#9eb3c2" stroke-miterlimit="10" stroke-width="1.5"/>
  <path id="Stroke_5" data-name="Stroke 5" d="M0,2.866H10.507V0H0Z" transform="translate(10.985 22.448)" fill="none" stroke="#9eb3c2" stroke-miterlimit="10" stroke-width="1.5"/>
  <path id="Stroke_7" data-name="Stroke 7" d="M3.267,10.244a6.785,6.785,0,0,1,7-6.985,6.958,6.958,0,0,1,6.741,8.846l2.868,1.745A10.234,10.234,0,0,0,10.269,0C4.057.091-.055,4.6,0,10.244a10.432,10.432,0,0,0,.62,3.446L3.533,12.08A7.108,7.108,0,0,1,3.267,10.244Z" transform="translate(5.731 6.209)" fill="none" stroke="#9eb3c2" stroke-miterlimit="10" stroke-width="1.5"/>
  <path id="Stroke_9" data-name="Stroke 9" d="M2.388,0,0,1.91" transform="translate(21.97 10.507)" fill="none" stroke="#9eb3c2" stroke-miterlimit="10" stroke-width="1.5"/>
  <path id="Stroke_10" data-name="Stroke 10" d="M3.343,0,0,.478" transform="translate(22.925 15.284)" fill="none" stroke="#9eb3c2" stroke-miterlimit="10" stroke-width="1.5"/>
  <path id="Stroke_11" data-name="Stroke 11" d="M1.773,0,0,2.66" transform="translate(19.242 7.642)" fill="none" stroke="#9eb3c2" stroke-miterlimit="10" stroke-width="1.5"/>
  <path id="Stroke_12" data-name="Stroke 12" d="M0,0,2.388,1.91" transform="translate(7.642 10.507)" fill="none" stroke="#9eb3c2" stroke-miterlimit="10" stroke-width="1.5"/>
  <path id="Stroke_13" data-name="Stroke 13" d="M0,0,3.343.478" transform="translate(5.731 15.284)" fill="none" stroke="#9eb3c2" stroke-miterlimit="10" stroke-width="1.5"/>
  <path id="Stroke_14" data-name="Stroke 14" d="M0,0,1.785,2.677" transform="translate(10.985 7.642)" fill="none" stroke="#9eb3c2" stroke-miterlimit="10" stroke-width="1.5"/>
  <path id="Stroke_15" data-name="Stroke 15" d="M0,6.687,5.731,0" transform="translate(16.239 10.03)" fill="none" stroke="#9eb3c2" stroke-miterlimit="10" stroke-width="1.5"/>
  <path id="Stroke_8" data-name="Stroke 8" d="M.25,0V3.343" transform="translate(16.108 6.209)" fill="none" stroke="#9eb3c2" stroke-miterlimit="10" stroke-width="1.5"/>
</svg>
