<svg xmlns="http://www.w3.org/2000/svg" width="7.248" height="11.632" viewBox="0 0 7.248 11.632">
  <path id="_" data-name="?" d="M3.968-11.36A4.644,4.644,0,0,0,.224-9.648L1.84-8.4a2.5,2.5,0,0,1,1.872-.976c.7,0,1.12.336,1.12.912,0,1.312-2.544,1.12-2.544,3.888v.5h2.3v-.4c0-1.792,2.88-1.616,2.88-4.208C7.472-10.112,6.3-11.36,3.968-11.36Zm-.5,8.736a1.444,1.444,0,0,0-1.44,1.44A1.448,1.448,0,0,0,3.472.272a1.448,1.448,0,0,0,1.44-1.456A1.444,1.444,0,0,0,3.472-2.624Z" transform="translate(-0.224 11.36)" fill="#1c7293"/>
</svg>
