<?xml version="1.0" encoding="utf-8"?>
<!-- Generator: Adobe Illustrator 24.3.0, SVG Export Plug-In . SVG Version: 6.00 Build 0)  -->
<svg version="1.1" id="cta_settings" xmlns="http://www.w3.org/2000/svg" xmlns:xlink="http://www.w3.org/1999/xlink" x="0px"
	 y="0px" viewBox="0 0 32 32" style="enable-background:new 0 0 32 32;" xml:space="preserve">
<style type="text/css">
	.st0{fill:none;stroke:#9EB3C2;stroke-width:1.5;stroke-miterlimit:10;}
	.st1{fill:none;stroke:#9EB3C2;stroke-width:1.5;stroke-linecap:round;stroke-miterlimit:10;}
	.st2{fill:#FEFEFE;}
	.st3{fill:#FFFFFF;stroke:#9EB3C2;stroke-width:1.5;stroke-miterlimit:10;}
</style>
<path id="Stroke_3" class="st0" d="M19,30.3H6.6c-1,0-1.8-0.8-1.8-1.8c0,0,0,0,0,0V6.6c0-0.9,0.6-1.6,1.4-1.8h17.6
	c1.5,0,2.3,0.8,2.3,1.8v13.7"/>
<path id="Stroke_5" class="st0" d="M24.4,31c-2.6,0-4.8-2.1-4.8-4.8s2.1-4.8,4.8-4.8s4.8,2.1,4.8,4.8l0,0C29.1,28.9,27,31,24.4,31z"
	/>
<path id="Stroke_3-2" class="st1" d="M21.5,26.4l1.6,1.7l4.1-3.8"/>
<path id="Stroke_7" class="st0" d="M18.5,27.8H8.6c-0.8,0-1.5-0.6-1.5-1.5V9.6c0-0.7,0.4-1.3,1.1-1.5h13.7c1.2,0,1.8,0.6,1.8,1.5
	v10.4"/>
<path id="Fill_7" class="st2" d="M11.1,12.2c0,0.4-0.4,0.8-0.8,0.8c-0.4,0-0.8-0.4-0.8-0.8c0-0.4,0.4-0.8,0.8-0.8
	C10.7,11.4,11.1,11.7,11.1,12.2"/>
<path id="Stroke_9" class="st0" d="M11.1,12.2c0,0.4-0.4,0.8-0.8,0.8c-0.4,0-0.8-0.4-0.8-0.8c0-0.4,0.4-0.8,0.8-0.8
	C10.7,11.4,11.1,11.7,11.1,12.2z"/>
<path id="Path" class="st3" d="M18.7,3.3H18c-0.4,0-0.7-0.3-0.7-0.7v0c0-0.9-1.2-1.7-2-1.7h0c-0.9,0-2,0.7-2,1.7v0
	c0,0.4-0.3,0.7-0.7,0.7h-0.7c-0.8,0-1.4,0.7-1.3,1.4v0c0,0.8,0.6,1.4,1.3,1.4h6.9c0.8,0,1.4-0.7,1.3-1.4v0C20.1,4,19.5,3.4,18.7,3.3
	z"/>
<path id="Path-2" class="st0" d="M15.3,3.8c-0.5,0-1-0.4-1-1s0.4-1,1-1c0.5,0,1,0.4,1,1l0,0C16.2,3.4,15.8,3.8,15.3,3.8z"/>
<path id="Fill_7-2" class="st2" d="M11.1,16.9c0,0.4-0.4,0.8-0.8,0.8c-0.4,0-0.8-0.4-0.8-0.8c0-0.4,0.4-0.8,0.8-0.8
	C10.7,16.1,11.1,16.5,11.1,16.9"/>
<path id="Stroke_9-2" class="st0" d="M11.1,17.9c0,0.4-0.4,0.8-0.8,0.8c-0.4,0-0.8-0.4-0.8-0.8c0-0.4,0.4-0.8,0.8-0.8
	C10.7,17.1,11.1,17.4,11.1,17.9z"/>
<path id="Fill_7-3" class="st2" d="M11.1,21.7c0,0.4-0.4,0.8-0.8,0.8c-0.4,0-0.8-0.4-0.8-0.8c0-0.4,0.4-0.8,0.8-0.8
	C10.7,20.9,11.1,21.3,11.1,21.7"/>
<path id="Stroke_9-3" class="st0" d="M11.1,23.6c0,0.4-0.4,0.8-0.8,0.8c-0.4,0-0.8-0.4-0.8-0.8c0-0.4,0.4-0.8,0.8-0.8
	C10.7,22.8,11.1,23.2,11.1,23.6z"/>
<path id="Fill_7-4" class="st2" d="M10.1,25c0,0.4-0.4,0.8-0.8,0.8c-0.4,0-0.8-0.4-0.8-0.8c0-0.4,0.4-0.8,0.8-0.8
	C9.7,24.3,10.1,24.6,10.1,25"/>
<path id="Stroke_19" class="st1" d="M12.8,12.2h8.6"/>
<path id="Stroke_19-2" class="st1" d="M12.8,17.9h8.6"/>
<path id="Stroke_19-3" class="st1" d="M12.8,23.6l5.6,0"/>
</svg>
