<svg id="cta_settings" data-name="cta/settings" xmlns="http://www.w3.org/2000/svg" width="32" height="32" viewBox="0 0 32 32">
  <path id="Stroke_3" data-name="Stroke 3" d="M5.936,12.639H0C0,8.662,3.759,8.663,4.593,7.623l.1-.474a3.75,3.75,0,0,1-2-3.438A3.487,3.487,0,0,1,5.894,0,3.487,3.487,0,0,1,9.1,3.712,3.758,3.758,0,0,1,7.13,7.136l.109.539c.915.99,4.549,1.054,4.549,4.963Z" transform="translate(3.105 16.735)" fill="none" stroke="#9eb3c2" stroke-miterlimit="10" stroke-width="1.5"/>
  <path id="Stroke_7" data-name="Stroke 7" d="M5.936,12.639H0C0,8.662,3.759,8.663,4.593,7.623l.1-.474a3.75,3.75,0,0,1-2-3.438A3.487,3.487,0,0,1,5.895,0,3.487,3.487,0,0,1,9.1,3.712,3.758,3.758,0,0,1,7.13,7.136l.109.539c.915.99,4.548,1.054,4.548,4.963Z" transform="translate(17.245 16.735)" fill="none" stroke="#9eb3c2" stroke-miterlimit="10" stroke-width="1.5"/>
  <path id="Stroke_11" data-name="Stroke 11" d="M5.936,12.639H0C0,8.662,3.759,8.663,4.593,7.624l.1-.474a3.75,3.75,0,0,1-2-3.438A3.487,3.487,0,0,1,5.894,0,3.486,3.486,0,0,1,9.1,3.712,3.758,3.758,0,0,1,7.13,7.136l.109.539c.915.99,4.549,1.054,4.549,4.963Z" transform="translate(10.175 2.627)" fill="none" stroke="#9eb3c2" stroke-miterlimit="10" stroke-width="1.5"/>
</svg>
